<svg preserveAspectRatio="none" width="100%" height="100%" overflow="visible" style="display: block;" viewBox="0 0 17.9999 16.9999" fill="none" xmlns="http://www.w3.org/2000/svg">
<g id="Container">
<path id="Icon" d="M1.49996 14.4999V14.4999V15.1922C1.49996 15.282 1.49996 15.3557 1.49996 15.4134C1.49996 15.4711 1.49996 15.5 1.49996 15.5V15.5C1.49996 15.5 1.49996 15.4711 1.49996 15.4134C1.49996 15.3557 1.49996 15.282 1.49996 15.1922V1.80768C1.49996 1.71793 1.49996 1.6442 1.49996 1.58651C1.49996 1.52881 1.49996 1.49996 1.49996 1.49996V1.49996C1.49996 1.49996 1.49996 1.52881 1.49996 1.58651C1.49996 1.6442 1.49996 1.71793 1.49996 1.80768V2.50004V2.50004C1.49996 2.50004 1.49996 2.80356 1.49996 3.4106C1.49996 4.01764 1.49996 4.81667 1.49996 5.80768V11.1922C1.49996 12.1833 1.49996 12.9823 1.49996 13.5893C1.49996 14.1964 1.49996 14.4999 1.49996 14.4999V14.4999M1.80768 16.9999C1.30896 16.9999 0.883006 16.8233 0.529803 16.4701C0.176601 16.1169 0 15.691 0 15.1922V1.80768C0 1.30896 0.176601 0.883006 0.529803 0.529803C0.883006 0.176601 1.30896 0 1.80768 0H15.1922C15.691 0 16.1169 0.176601 16.4701 0.529803C16.8233 0.883006 16.9999 1.30896 16.9999 1.80768V4.52885H15.5V1.80768C15.5 1.71793 15.4711 1.6442 15.4134 1.58651C15.3557 1.52881 15.282 1.49996 15.1922 1.49996H1.80768C1.71793 1.49996 1.6442 1.52881 1.58651 1.58651C1.52881 1.6442 1.49996 1.71793 1.49996 1.80768V15.1922C1.49996 15.282 1.52881 15.3557 1.58651 15.4134C1.6442 15.4711 1.71793 15.5 1.80768 15.5H15.1922C15.282 15.5 15.3557 15.4711 15.4134 15.4134C15.4711 15.3557 15.5 15.282 15.5 15.1922V12.4711H16.9999V15.1922C16.9999 15.691 16.8233 16.1169 16.4701 16.4701C16.1169 16.8233 15.691 16.9999 15.1922 16.9999H1.80768V16.9999M9.80768 12.9999C9.30896 12.9999 8.88301 12.8233 8.5298 12.4701C8.1766 12.1169 8 11.691 8 11.1922V5.80768C8 5.30896 8.1766 4.88301 8.5298 4.5298C8.88301 4.1766 9.30896 4 9.80768 4H16.1922C16.691 4 17.1169 4.1766 17.4701 4.5298C17.8233 4.88301 17.9999 5.30896 17.9999 5.80768V11.1922C17.9999 11.691 17.8233 12.1169 17.4701 12.4701C17.1169 12.8233 16.691 12.9999 16.1922 12.9999H9.80768V12.9999M16.1922 11.5C16.282 11.5 16.3557 11.4711 16.4134 11.4134C16.4711 11.3557 16.5 11.282 16.5 11.1922V5.80768C16.5 5.71793 16.4711 5.6442 16.4134 5.58651C16.3557 5.52881 16.282 5.49996 16.1922 5.49996H9.80768C9.71793 5.49996 9.6442 5.52881 9.58651 5.58651C9.52881 5.6442 9.49996 5.71793 9.49996 5.80768V11.1922C9.49996 11.282 9.52881 11.3557 9.58651 11.4134C9.6442 11.4711 9.71793 11.5 9.80768 11.5H16.1922V11.5M12.5 9.99996C12.9166 9.99996 13.2708 9.85413 13.5625 9.56246C13.8541 9.2708 14 8.91663 14 8.49996C14 8.0833 13.8541 7.72913 13.5625 7.43746C13.2708 7.1458 12.9166 6.99996 12.5 6.99996C12.0833 6.99996 11.7291 7.1458 11.4375 7.43746C11.1458 7.72913 11 8.0833 11 8.49996C11 8.91663 11.1458 9.2708 11.4375 9.56246C11.7291 9.85413 12.0833 9.99996 12.5 9.99996V9.99996" fill="var(--fill-0, #E7E4EC)"/>
</g>
</svg>
